# xmcd
#
# Track frame offsets:
#  150
#  2400
#  14161
#  38600
#  58355
#  74220
#  78034
#  93660
#  115857
#  126631
#  146918
#  167259
#  171834
#  190081
#
# Disc length: 2805 seconds
#
# Revision: 0
# Processed by: cddbd v1.5.1PL0 Copyright (c) Steve Scherf et al.
# Submitted via: AltoMP3_Maker 3.0
#
DISCID=c50af30e
DTITLE=Vytal - Vytal
DYEAR=1900
DGENRE=
TTITLE0=Intro
TTITLE1=Vytality
TTITLE2=Me, Moet and You
TTITLE3=626 Hotel
TTITLE4=Deny Me
TTITLE5=Fantasy Episode (Pringle Poppin'
TTITLE6=Freaky-Like
TTITLE7=All I Ever Wanted
TTITLE8=Jea' and Jene'
TTITLE9=Mr. Caine
TTITLE10=Lake City
TTITLE11=Fantasy Episode (Toakin' A Dream
TTITLE12=Touch It
TTITLE13=Tipsy
EXTD=
EXTT0=
EXTT1=
EXTT2=
EXTT3=
EXTT4=
EXTT5=
EXTT6=
EXTT7=
EXTT8=
EXTT9=
EXTT10=
EXTT11=
EXTT12=
EXTT13=
PLAYORDER=
